<?xml version="1.0" standalone="no"?>
<!DOCTYPE svg PUBLIC "-//W3C//DTD SVG 20010904//EN"
 "http://www.w3.org/TR/2001/REC-SVG-20010904/DTD/svg10.dtd">
<svg version="1.0" xmlns="http://www.w3.org/2000/svg"
 width="500.000000pt" height="155.000000pt" viewBox="0 0 500.000000 155.000000"
 preserveAspectRatio="xMidYMid meet">
<metadata>
Created by potrace 1.16, written by Peter Selinger 2001-2019
</metadata>
<g transform="translate(0.000000,155.000000) scale(0.100000,-0.100000)"
fill="#000000" stroke="none">
<path d="M615 1510 c-60 -13 -122 -35 -185 -67 -79 -39 -110 -62 -185 -138
-102 -102 -144 -167 -189 -292 -29 -84 -31 -94 -30 -243 0 -141 2 -162 27
-235 37 -110 89 -195 176 -287 84 -89 146 -133 249 -176 233 -99 509 -75 717
64 127 84 253 250 302 399 25 73 27 94 27 235 0 144 -1 161 -27 235 -42 120
-99 209 -196 305 -70 69 -104 95 -181 133 -164 82 -327 104 -505 67z m198
-225 c92 -19 160 -58 234 -131 73 -74 117 -160 134 -262 l12 -72 78 0 c91 0
87 5 64 -103 -20 -96 -76 -197 -144 -259 -60 -55 -153 -104 -213 -114 -41 -7
-45 -14 -26 -44 21 -34 -1 -73 -50 -88 -34 -11 -55 -12 -114 -1 l-73 12 70 17
c39 9 80 22 92 28 20 11 43 41 43 56 0 3 -31 6 -68 6 -215 0 -415 181 -454
410 l-12 70 -78 0 c-90 0 -87 -4 -63 99 34 141 127 267 244 330 108 57 206 71
324 46z"/>
<path d="M490 1088 c-26 -43 -26 -98 1 -132 46 -58 109 -17 109 72 0 84 -72
122 -110 60z"/>
<path d="M730 791 c0 -102 99 -225 205 -257 93 -26 219 -1 268 53 17 20 17 20
-35 2 -90 -31 -165 -21 -250 33 -51 32 -107 109 -117 161 -6 27 -12 32 -39 35
-30 3 -32 1 -32 -27z"/>
<path d="M3770 860 l0 -340 50 0 50 0 0 168 c0 139 3 172 16 191 22 31 75 52
114 45 55 -12 60 -29 60 -226 l0 -178 50 0 50 0 -1 183 c0 206 -7 240 -58 274
-46 31 -150 32 -198 3 l-33 -20 0 120 0 120 -50 0 -50 0 0 -340z"/>
<path d="M2020 1125 l0 -35 105 0 105 0 0 -285 0 -285 50 0 50 0 0 285 0 285
100 0 100 0 0 35 0 35 -255 0 -255 0 0 -35z"/>
<path d="M3510 1060 l0 -60 -45 0 c-45 0 -45 0 -45 -35 0 -35 0 -35 45 -35
l45 0 0 -181 0 -181 29 -29 c26 -26 36 -29 90 -29 l61 0 0 41 c0 39 -1 41 -25
35 -17 -4 -31 0 -45 14 -18 18 -20 33 -20 175 l0 155 45 0 c45 0 45 0 45 35 0
35 0 35 -45 35 l-45 0 0 60 0 60 -45 0 -45 0 0 -60z"/>
<path d="M2592 798 c32 -112 63 -220 69 -240 9 -36 12 -38 52 -38 l42 0 49
160 c27 88 52 160 55 160 3 0 28 -72 56 -160 l50 -160 42 0 c24 0 43 1 43 3 0
1 31 109 69 240 l69 237 -49 0 c-55 0 -44 22 -99 -202 l-34 -138 -51 168 -52
167 -43 0 c-37 0 -44 -3 -51 -25 -4 -14 -27 -86 -50 -160 l-42 -135 -42 160
-42 160 -50 3 -50 3 59 -203z"/>
<path d="M3260 760 l0 -240 50 0 50 0 0 240 0 240 -50 0 -50 0 0 -240z"/>
<path d="M4374 986 c-40 -18 -98 -87 -112 -135 -22 -70 -15 -171 14 -230 38
-75 86 -105 180 -109 89 -5 130 8 175 54 l34 35 -24 20 c-29 23 -44 24 -62 2
-17 -20 -71 -43 -101 -43 -59 0 -128 69 -128 127 0 23 0 23 161 23 l162 0 -7
64 c-10 101 -44 160 -113 195 -30 15 -141 13 -179 -3z m137 -72 c17 -8 37 -30
45 -49 27 -65 26 -65 -97 -65 l-111 0 6 28 c13 54 64 101 109 102 10 0 32 -7
48 -16z"/>
<path d="M4750 760 l0 -240 50 0 50 0 0 173 c0 172 0 174 25 197 18 17 37 23
70 24 l45 1 0 43 0 42 -49 0 c-34 0 -56 -6 -75 -21 l-26 -20 0 20 c0 18 -6 21
-45 21 l-45 0 0 -240z"/>
</g>
</svg>
